<svg xmlns="http://www.w3.org/2000/svg" xmlns:xlink="http://www.w3.org/1999/xlink" width="500" zoomAndPan="magnify" viewBox="0 0 375 374.999991" height="500" preserveAspectRatio="xMidYMid meet" version="1.2"><defs><clipPath id="e971975994"><path d="M 110.785156 130.007812 L 144.308594 130.007812 L 144.308594 163.535156 L 110.785156 163.535156 Z M 110.785156 130.007812 "/></clipPath><clipPath id="3ecfa67f3c"><path d="M 127.546875 130.007812 C 118.289062 130.007812 110.785156 137.511719 110.785156 146.769531 C 110.785156 156.027344 118.289062 163.535156 127.546875 163.535156 C 136.804688 163.535156 144.308594 156.027344 144.308594 146.769531 C 144.308594 137.511719 136.804688 130.007812 127.546875 130.007812 Z M 127.546875 130.007812 "/></clipPath><clipPath id="0e66615bb4"><path d="M 140 149 L 210 149 L 210 256 L 140 256 Z M 140 149 "/></clipPath><clipPath id="0361ae775e"><path d="M 179.484375 148.585938 L 210.320312 161.746094 L 169.964844 256.300781 L 139.128906 243.140625 Z M 179.484375 148.585938 "/></clipPath><clipPath id="43b9b52709"><path d="M 182.242188 149.761719 L 207.558594 160.566406 C 209.085938 161.21875 209.792969 162.980469 209.140625 164.503906 L 171.175781 253.464844 C 170.527344 254.988281 168.765625 255.699219 167.238281 255.046875 L 141.921875 244.242188 C 140.398438 243.59375 139.691406 241.828125 140.339844 240.304688 L 178.304688 151.34375 C 178.957031 149.820312 180.71875 149.113281 182.242188 149.761719 Z M 182.242188 149.761719 "/></clipPath><clipPath id="21d898b416"><path d="M 167 133 L 236 133 L 236 240 L 167 240 Z M 167 133 "/></clipPath><clipPath id="8045aebdb0"><path d="M 166.300781 144.46875 L 197.351562 131.824219 L 236.527344 228.003906 L 205.476562 240.652344 Z M 166.300781 144.46875 "/></clipPath><clipPath id="62bb3b14ac"><path d="M 170.789062 142.640625 L 192.863281 133.652344 C 195.339844 132.640625 198.167969 133.832031 199.179688 136.3125 L 234.660156 223.421875 C 235.671875 225.902344 234.480469 228.730469 232 229.742188 L 209.929688 238.730469 C 207.449219 239.742188 204.621094 238.550781 203.613281 236.070312 L 168.128906 148.957031 C 167.121094 146.480469 168.3125 143.652344 170.789062 142.640625 Z M 170.789062 142.640625 "/></clipPath><clipPath id="f69676971d"><path d="M 160 124 L 200 124 L 200 163 L 160 163 Z M 160 124 "/></clipPath><clipPath id="ed01b1cd23"><path d="M 170.558594 122.777344 L 201.445312 135.960938 L 189.394531 164.199219 L 158.507812 151.015625 Z M 170.558594 122.777344 "/></clipPath><clipPath id="fff9f3fcca"><path d="M 175.015625 124.679688 L 196.9375 134.035156 C 199.398438 135.085938 200.542969 137.933594 199.492188 140.394531 L 191.246094 159.71875 C 190.195312 162.179688 187.347656 163.324219 184.886719 162.273438 L 162.964844 152.921875 C 160.503906 151.871094 159.359375 149.023438 160.410156 146.558594 L 168.65625 127.234375 C 169.707031 124.773438 172.554688 123.628906 175.015625 124.679688 Z M 175.015625 124.679688 "/></clipPath><clipPath id="9eb60e4aba"><path d="M 203 211 L 244 211 L 244 251 L 203 251 Z M 203 211 "/></clipPath><clipPath id="1fef931b5b"><path d="M 214.257812 210.296875 L 245.144531 223.476562 L 233.09375 251.714844 L 202.207031 238.535156 Z M 214.257812 210.296875 "/></clipPath><clipPath id="613bca95a5"><path d="M 218.714844 212.199219 L 240.636719 221.554688 C 243.097656 222.601562 244.242188 225.453125 243.191406 227.914062 L 234.945312 247.238281 C 233.894531 249.699219 231.046875 250.84375 228.582031 249.792969 L 206.664062 240.4375 C 204.203125 239.386719 203.058594 236.539062 204.109375 234.078125 L 212.355469 214.753906 C 213.40625 212.292969 216.253906 211.148438 218.714844 212.199219 Z M 218.714844 212.199219 "/></clipPath><clipPath id="843d3db683"><path d="M 122 166 L 161 166 L 161 196 L 122 196 Z M 122 166 "/></clipPath><clipPath id="637aa232fb"><path d="M 122.28125 178.289062 L 153.371094 165.625 L 160.859375 184.007812 L 129.765625 196.671875 Z M 122.28125 178.289062 "/></clipPath><clipPath id="96c1a21084"><path d="M 124.363281 177.441406 L 151.246094 166.492188 C 151.796875 166.265625 152.417969 166.269531 152.96875 166.5 C 153.515625 166.734375 153.953125 167.175781 154.179688 167.726562 L 159.96875 181.941406 C 160.191406 182.492188 160.1875 183.113281 159.957031 183.664062 C 159.726562 184.210938 159.285156 184.648438 158.734375 184.871094 L 131.851562 195.824219 C 131.296875 196.046875 130.679688 196.042969 130.128906 195.8125 C 129.578125 195.582031 129.144531 195.140625 128.917969 194.585938 L 123.128906 180.375 C 122.902344 179.820312 122.90625 179.203125 123.136719 178.652344 C 123.371094 178.101562 123.8125 177.667969 124.363281 177.441406 Z M 124.363281 177.441406 "/></clipPath><clipPath id="4e09bbcd9c"><path d="M 129 182 L 161 182 L 161 227 L 129 227 Z M 129 182 "/></clipPath><clipPath id="4d309f2e0a"><path d="M 119.566406 216.617188 L 138.589844 172.738281 L 160.402344 182.195312 L 141.378906 226.074219 Z M 119.566406 216.617188 "/></clipPath><clipPath id="e32ef1ecde"><path d="M 129.066406 194.699219 L 160.382812 182.238281 L 141.378906 226.074219 Z M 129.066406 194.699219 "/></clipPath><clipPath id="30a67e4d07"><path d="M 214 119 L 264 119 L 264 177 L 214 177 Z M 214 119 "/></clipPath><clipPath id="b01dd902be"><path d="M 233.378906 118.773438 L 264.214844 131.933594 L 244.835938 177.34375 L 214 164.1875 Z M 233.378906 118.773438 "/></clipPath><clipPath id="862145061f"><path d="M 236.136719 119.953125 L 261.457031 130.757812 C 262.980469 131.40625 263.6875 133.171875 263.039062 134.695312 L 246.054688 174.484375 C 245.40625 176.007812 243.644531 176.71875 242.117188 176.066406 L 216.800781 165.261719 C 215.277344 164.613281 214.570312 162.851562 215.21875 161.324219 L 232.203125 121.535156 C 232.851562 120.011719 234.613281 119.300781 236.136719 119.953125 Z M 236.136719 119.953125 "/></clipPath><clipPath id="8fc63becab"><path d="M 214.6875 162.105469 L 251.214844 162.105469 L 251.214844 205.910156 L 214.6875 205.910156 Z M 214.6875 162.105469 "/></clipPath><clipPath id="bb9335b530"><path d="M 232.953125 205.816406 L 251.214844 162.105469 L 214.6875 162.105469 Z M 232.953125 205.816406 "/></clipPath></defs><g id="d57ad0b552"><g clip-rule="nonzero" clip-path="url(#e971975994)"><g clip-rule="nonzero" clip-path="url(#3ecfa67f3c)"><path style=" stroke:none;fill-rule:nonzero;fill:#000000;fill-opacity:1;" d="M 110.785156 130.007812 L 144.308594 130.007812 L 144.308594 163.535156 L 110.785156 163.535156 Z M 110.785156 130.007812 "/></g></g><g clip-rule="nonzero" clip-path="url(#0e66615bb4)"><g clip-rule="nonzero" clip-path="url(#0361ae775e)"><g clip-rule="nonzero" clip-path="url(#43b9b52709)"><path style=" stroke:none;fill-rule:nonzero;fill:#000000;fill-opacity:1;" d="M 179.484375 148.585938 L 210.320312 161.746094 L 170.019531 256.179688 L 139.183594 243.019531 Z M 179.484375 148.585938 "/></g></g></g><g clip-rule="nonzero" clip-path="url(#21d898b416)"><g clip-rule="nonzero" clip-path="url(#8045aebdb0)"><g clip-rule="nonzero" clip-path="url(#62bb3b14ac)"><path style=" stroke:none;fill-rule:nonzero;fill:#000000;fill-opacity:1;" d="M 166.300781 144.46875 L 197.351562 131.824219 L 236.476562 227.882812 L 205.429688 240.527344 Z M 166.300781 144.46875 "/></g></g></g><g clip-rule="nonzero" clip-path="url(#f69676971d)"><g clip-rule="nonzero" clip-path="url(#ed01b1cd23)"><g clip-rule="nonzero" clip-path="url(#fff9f3fcca)"><path style=" stroke:none;fill-rule:nonzero;fill:#000000;fill-opacity:1;" d="M 170.558594 122.777344 L 201.445312 135.960938 L 189.394531 164.199219 L 158.507812 151.015625 Z M 170.558594 122.777344 "/></g></g></g><g clip-rule="nonzero" clip-path="url(#9eb60e4aba)"><g clip-rule="nonzero" clip-path="url(#1fef931b5b)"><g clip-rule="nonzero" clip-path="url(#613bca95a5)"><path style=" stroke:none;fill-rule:nonzero;fill:#000000;fill-opacity:1;" d="M 214.257812 210.296875 L 245.144531 223.476562 L 233.09375 251.714844 L 202.207031 238.535156 Z M 214.257812 210.296875 "/></g></g></g><g clip-rule="nonzero" clip-path="url(#843d3db683)"><g clip-rule="nonzero" clip-path="url(#637aa232fb)"><g clip-rule="nonzero" clip-path="url(#96c1a21084)"><path style=" stroke:none;fill-rule:nonzero;fill:#000000;fill-opacity:1;" d="M 122.28125 178.289062 L 153.296875 165.65625 L 160.785156 184.035156 L 129.765625 196.671875 Z M 122.28125 178.289062 "/></g></g></g><g clip-rule="nonzero" clip-path="url(#4e09bbcd9c)"><g clip-rule="nonzero" clip-path="url(#4d309f2e0a)"><g clip-rule="nonzero" clip-path="url(#e32ef1ecde)"><path style=" stroke:none;fill-rule:nonzero;fill:#000000;fill-opacity:1;" d="M 119.566406 216.617188 L 138.554688 172.824219 L 160.367188 182.28125 L 141.378906 226.074219 Z M 119.566406 216.617188 "/></g></g></g><g clip-rule="nonzero" clip-path="url(#30a67e4d07)"><g clip-rule="nonzero" clip-path="url(#b01dd902be)"><g clip-rule="nonzero" clip-path="url(#862145061f)"><path style=" stroke:none;fill-rule:nonzero;fill:#000000;fill-opacity:1;" d="M 233.378906 118.773438 L 264.214844 131.933594 L 244.886719 177.226562 L 214.050781 164.066406 Z M 233.378906 118.773438 "/></g></g></g><g clip-rule="nonzero" clip-path="url(#8fc63becab)"><g clip-rule="nonzero" clip-path="url(#bb9335b530)"><path style=" stroke:none;fill-rule:nonzero;fill:#000000;fill-opacity:1;" d="M 214.6875 162.105469 L 251.214844 162.105469 L 251.214844 205.765625 L 214.6875 205.765625 Z M 214.6875 162.105469 "/></g></g></g></svg>